# AST/ASF file generated using VICON BodyLanguage
# -----------------------------------------------
:version 1.10
:name VICON
:units
  mass 1.0
  length 0.45
  angle deg
:documentation
   .ast/.asf automatically generated from VICON data using
   VICON BodyBuilder and BodyLanguage model FoxedUp or BRILLIANT.MOD
:root
   order TX TY TZ RX RY RZ
   axis XYZ
   position 0 0 0  
   orientation 0 0 0 
:bonedata
  begin
     id 1 
     name lhipjoint
     direction 0.722297 -0.617336 0.311742 
     length 2.6635 
     axis 0 0 0  XYZ
  end
  begin
     id 2 
     name lfemur
     direction 0.34202 -0.939693 0  
     length 7.39349  
     axis 0 0 20  XYZ
    dof rx ry rz
    limits (-160.0 20.0)
           (-70.0 70.0)
           (-60.0 70.0)
  end
  begin
     id 3 
     name ltibia
     direction 0.34202 -0.939693 0   
     length 7.36294   
     axis 0 0 20   XYZ
    dof rx
    limits (-10.0 170.0)
  end
  begin
     id 4 
     name lfoot
     direction 0.104879 -0.288152 0.951824   
     length 2.16981   
     axis -90 7.62852e-016 20   XYZ
    dof rx rz
    limits (-45.0 90.0)
           (-70.0 20.0)
  end
  begin
     id 5 
     name ltoes
     direction 1.53586e-011 -4.21895e-011 1   
     length 1.08218   
     axis -90 7.62852e-016 20   XYZ
    dof rx
    limits (-90.0 20.0)
  end
  begin
     id 6 
     name rhipjoint
     direction -0.75102 -0.589393 0.297631   
     length 2.78977  
     axis 0 0 0  XYZ 
  end
  begin
     id 7 
     name rfemur
     direction -0.34202 -0.939693 0   
     length 7.46076   
     axis 0 0 -20   XYZ
    dof rx ry rz
    limits (-160.0 20.0)
           (-70.0 70.0)
           (-70.0 60.0)
  end
  begin
     id 8 
     name rtibia
     direction -0.34202 -0.939693 0   
     length 7.31726   
     axis 0 0 -20   XYZ
    dof rx
    limits (-10.0 170.0)
 end
 begin
     id 9 
     name rfoot
     direction -0.107991 -0.296704 0.948844   
     length 2.09388  
     axis -90 -7.62852e-016 -20   XYZ
    dof rx rz
    limits (-45.0 90.0)
           (-20.0 70.0)
  end
  begin
     id 10 
     name rtoes
     direction -1.53559e-011 -4.21911e-011 1   
     length 1.04433   
     axis -90 -7.62852e-016 -20   XYZ
    dof rx
    limits (-90.0 20.0)
  end
  begin
     id 11 
     name lowerback
     direction 0.0165164 0.98272 0.184358   
     length 1.71896   
     axis 0 0 0   XYZ
    dof rx ry rz
    limits (-20.0 45.0)
           (-30.0 30.0)
           (-30.0 30.0)
  end
  begin
     id 12 
     name upperback
     direction -0.00887249 0.992297 0.123566   
     length 1.71504   
     axis 0 0 0   XYZ
    dof rx ry rz
    limits (-20.0 45.0)
           (-30.0 30.0)
           (-30.0 30.0)
  end
  begin
     id 13 
     name thorax
     direction -0.0157026 0.998908 0.0440032   
     length 1.77022   
     axis 0 0 0   XYZ
    dof rx ry rz
    limits (-20.0 45.0)
           (-30.0 30.0)
           (-30.0 30.0)
  end
  begin
     id 14 
     name lowerneck
     direction -0.0238856 0.998137 0.0561411   
     length 1.89341   
     axis 0 0 0   XYZ
    dof rx ry rz
    limits (-20.0 45.0)
           (-30.0 30.0)
           (-30.0 30.0)
  end
  begin
     id 15 
     name upperneck
     direction 0.0276574 0.952253 -0.304056   
     length 1.86999   
     axis 0 0 0   XYZ
    dof rx ry rz
    limits (-20.0 45.0)
           (-30.0 30.0)
           (-30.0 30.0)
  end
  begin
     id 16
     name head
     direction 0.00800083 0.994258 -0.106712  
     length 1.91492  
     axis 0 0 0   XYZ
    dof rx ry rz
    limits (-20.0 45.0)
           (-30.0 30.0)
           (-30.0 30.0)
  end
  begin
     id 17 
     name lclavicle
     direction 0.97203 0.225407 0.06595  
     length 3.34889  
     axis 0 0 0   XYZ
    dof ry rz
    limits (-20.0 10.0)
           (0.0 20.0)
  end
  begin
     id 18 
     name lhumerus
     direction 1 -4.48973e-011 2.20267e-027   
     length 4.85645   
     axis 180 -30 -90   XYZ
    dof rx ry rz
    limits (-60.0 90.0)
           (-90.0 90.0)
           (-90.0 90.0)
  end
  begin
     id 19
     name lradius
     direction 1 -4.4897e-011 4.60472e-027   
     length 2.79874   
     axis 180 -30 -90   XYZ
    dof rx
    limits (-10.0 170.0)
  end
  begin
     id 20
     name lwrist
     direction 1 -4.48952e-011 1.14928e-026   
     length 1.39937   
     axis -6.29373e-015 90 90   XYZ
    dof ry
    limits (-180.0 0.0)
 end
  begin
     id 21 
     name lhand
     direction 1 -4.48967e-011 2.29886e-026   
     length 0.573398   
     axis -1.46689e-014 90 90   XYZ
    dof rx rz
    limits (-90.0 90.0)
           (-45.0 45.0)
  end
  begin
     id 22 
     name lfingers
     direction 1 -4.48955e-011 4.59726e-026   
     length 0.462289   
     axis -2.93383e-014 90 90   XYZ
    dof rx
    limits (0.0 90.0)
  end
  begin
     id 23
     name lthumb
     direction 0.707107 -6.34866e-011 0.707107   
     length 0.663757   
     axis -90 45 5.69224e-014   XYZ
    dof rx rz
    limits (-45.0 45.0)
           (-45.0 45.0)
  end
  begin
     id 24 
     name rclavicle
     direction -0.981571 0.157346 0.108443   
     length 3.35257  
     axis 0 0 0   XYZ 
    dof ry rz
    limits (-10.0 20.0)
           (-20.0 0.0)
  end
  begin
     id 25 
     name rhumerus
     direction -1 -4.48967e-011 8.58308e-029  
     length 4.67018   
     axis 180 30 90   XYZ
    dof rx ry rz
    limits (-90.0 60.0)
           (-90.0 90.0)
           (-90.0 90.0)
  end
  begin
     id 26 
     name rradius
     direction -1 -4.48958e-011 4.52548e-027   
     length 2.65534   
     axis 180 30 90   XYZ
    dof rx
    limits (-10.0 170.0)
  end
  begin
     id 27 
     name rwrist
     direction -1 -4.48977e-011 1.14952e-026   
     length 1.32767   
     axis -6.29373e-015 -90 -90   XYZ
    dof ry
    limits (-180.0 0.0)
  end
  begin
     id 28
     name rhand
     direction -1 -4.48924e-011 2.29804e-026   
     length 0.594069   
     axis -1.46689e-014 -90 -90   XYZ
    dof rx rz
    limits (-90.0 90.0)
           (-45.0 45.0)
  end
  begin
     id 29
     name rfingers
     direction -1 -4.48998e-011 4.59888e-026   
     length 0.478954   
     axis -2.93383e-014 -90 -90   XYZ
    dof rx
    limits (0.0 90.0)
  end
  begin
     id 30
     name rthumb
     direction -0.707107 -6.34933e-011 0.707107   
     length 0.687685   
     axis -90 -45 -5.69224e-014   XYZ
    dof rx rz
    limits (-45.0 45.0)
           (-45.0 45.0)
  end
:hierarchy
  begin
    root lhipjoint rhipjoint lowerback
    lhipjoint lfemur
    lfemur ltibia
    ltibia lfoot
    lfoot ltoes
    rhipjoint rfemur
    rfemur rtibia
    rtibia rfoot
    rfoot rtoes
    lowerback upperback
    upperback thorax
    thorax lowerneck lclavicle rclavicle
    lowerneck upperneck
    upperneck head
    lclavicle lhumerus
    lhumerus lradius
    lradius lwrist
    lwrist lhand lthumb
    lhand lfingers
    rclavicle rhumerus
    rhumerus rradius
    rradius rwrist
    rwrist rhand rthumb
    rhand rfingers
  end

#!OML:ASF E:\pregnant2\Project 1\Capture day 1\Session 1\pregnant2.ASF
:FULLY-SPECIFIED
:DEGREES
576
root 7.12749 17.3962 22.373 29.1221 -6.62488 1.08418
lowerback -22.0619 -1.81466 -1.03709
upperback -16.8652 -2.3067 2.0962
thorax -6.20305 -1.01478 2.49189
lowerneck -6.92474 -12.1391 -17.8141
upperneck 26.3722 -18.0373 11.8246
head 12.6683 -8.84845 4.71652
rclavicle 2.48481e-014 -2.8625e-014
rhumerus -51.3312 10.9607 -93.9941
rradius 26.6156
rwrist 17.7487
rhand -12.4207 -11.7717
rfingers 7.12502
rthumb 13.6516 318.696
lclavicle 2.48481e-014 -2.8625e-014
lhumerus -51.8401 4.40569 89.2088
lradius 26.5336
lwrist -8.69364
lhand -7.01392 23.3169
lfingers 7.12502
lthumb 18.8574 52.4228
rfemur -41.4401 11.2384 11.8843
rtibia 25.3246
rfoot -12.3311 -19.2776
rtoes 1.20736
lfemur -35.2952 -14.1597 -12.5252
ltibia 18.8861
lfoot -4.14394 28.2333
ltoes -14.0471
577
root 7.12628 17.3956 22.3718 29.1592 -6.74084 1.10655
lowerback -22.0483 -1.82308 -1.07171
upperback -16.8413 -2.31395 2.10667
thorax -6.17961 -1.01579 2.52113
lowerneck -6.9209 -12.1006 -17.7706
upperneck 26.4896 -17.9923 11.7822
head 12.697 -8.82916 4.70494
rclavicle -9.54166e-015 3.10104e-014
rhumerus -51.4032 11.2069 -94.2775
rradius 26.8327
rwrist 17.6034
rhand -12.3147 -11.9486
rfingers 7.12502
rthumb 13.7537 318.526
lclavicle -9.54166e-015 3.10104e-014
lhumerus -51.703 4.42456 89.0744
lradius 26.4849
lwrist -8.80163
lhand -7.17865 23.3174
lfingers 7.12502
lthumb 18.699 52.4386
rfemur -41.5423 11.2293 11.8444
rtibia 25.3832
rfoot -12.3348 -19.179
rtoes 1.24438
lfemur -35.3059 -14.1342 -12.5558
ltibia 18.8572
lfoot -4.15588 28.2868
ltoes -14.0017
578
root 7.12519 17.3947 22.3706 29.1983 -6.85733 1.12922
lowerback -22.0324 -1.829 -1.09949
upperback -16.8183 -2.31913 2.11366
thorax -6.15872 -1.0166 2.54319
lowerneck -6.94249 -12.0591 -17.7194
upperneck 26.6341 -17.9401 11.7284
head 12.7388 -8.80583 4.68816
rclavicle 2.00773e-014 -1.66979e-014
rhumerus -51.4354 11.3736 -94.4576
rradius 27.04
rwrist 17.3872
rhand -12.2907 -12.1887
rfingers 7.12502
rthumb 13.7769 318.287
lclavicle 2.00773e-014 -1.66979e-014
lhumerus -51.5659 4.4305 88.9311
lradius 26.4316
lwrist -9.0331
lhand -7.35286 23.2973
lfingers 7.12502
lthumb 18.5314 52.4346
rfemur -41.6493 11.2198 11.8032
rtibia 25.4448
rfoot -12.3351 -19.0816
rtoes 1.26747
lfemur -35.3197 -14.1027 -12.5901
ltibia 18.8302
lfoot -4.16771 28.335
ltoes -13.9628
579
root 7.12405 17.3938 22.3696 29.2327 -6.97081 1.15285
lowerback -22.0094 -1.8343 -1.12279
upperback -16.7946 -2.32424 2.1185
thorax -6.1408 -1.01789 2.56058
lowerneck -6.98608 -12.0169 -17.6647
upperneck 26.8033 -17.8834 11.6619
head 12.7926 -8.78032 4.66574
rclavicle 2.64384e-014 4.77083e-015
rhumerus -51.4334 11.4762 -94.5474
rradius 27.2341
rwrist 17.0996
rhand -12.3505 -12.4426
rfingers 7.12502
rthumb 13.7192 318.03
lclavicle 2.64384e-014 4.77083e-015
lhumerus -51.4297 4.43035 88.7767
lradius 26.3734
lwrist -9.37486
lhand -7.52915 23.2652
lfingers 7.12502
lthumb 18.3618 52.4185
rfemur -41.7509 11.2112 11.7627
rtibia 25.5091
rfoot -12.3374 -18.9872
rtoes 1.2793
lfemur -35.3282 -14.0671 -12.6293
ltibia 18.8043
lfoot -4.18233 28.3761
ltoes -13.9295
580
root 7.12269 17.393 22.3688 29.2597 -7.08115 1.17781
lowerback -21.9786 -1.84052 -1.14454
upperback -16.7693 -2.33084 2.12258
thorax -6.12477 -1.02011 2.57619
lowerneck -7.0543 -11.9743 -17.6063
upperneck 26.9978 -17.8213 11.581
head 12.8592 -8.75237 4.63706
rclavicle 7.95139e-016 -1.59028e-015
rhumerus -51.4035 11.5368 -94.5667
rradius 27.415
rwrist 16.7503
rhand -12.4704 -12.6639
rfingers 7.12502
rthumb 13.6037 317.801
lclavicle 7.95139e-016 -1.59028e-015
lhumerus -51.2937 4.42202 88.6153
lradius 26.3136
lwrist -9.78436
lhand -7.69862 23.2327
lfingers 7.12502
lthumb 18.1988 52.4013
rfemur -41.8426 11.2051 11.7234
rtibia 25.5757
rfoot -12.3431 -18.898
rtoes 1.28744
lfemur -35.3277 -14.0265 -12.6746
ltibia 18.7797
lfoot -4.1993 28.4093
ltoes -13.9085
